<svg width="20" height="20" viewBox="0 0 20 20" fill="none" xmlns="http://www.w3.org/2000/svg">
<path d="M16.6666 7.55836H3.33331C2.99165 7.55836 2.70831 7.27503 2.70831 6.93336V3.33335C2.70831 2.06669 3.73331 1.04169 4.99998 1.04169H15C16.2666 1.04169 17.2916 2.06669 17.2916 3.33335V6.93336C17.2916 7.27503 17.0083 7.55836 16.6666 7.55836ZM3.95831 6.30836H16.0416V3.33335C16.0416 2.75835 15.575 2.29169 15 2.29169H4.99998C4.42498 2.29169 3.95831 2.75835 3.95831 3.33335V6.30836Z" fill="white"/>
<path d="M10.4169 18.9583H9.58354C8.31687 18.9583 7.29187 17.9333 7.29187 16.6667V14.9167C7.29187 14.5417 7.09186 14.1917 6.75852 14.0083L4.29189 12.6167C3.30856 12.0667 2.7002 11.025 2.7002 9.89165V6.92499C2.7002 6.58332 2.98353 6.29999 3.3252 6.29999H16.6585C17.0002 6.29999 17.2835 6.58332 17.2835 6.92499V9.89165C17.2835 11.0167 16.6752 12.0583 15.6919 12.6167L13.2252 14.0083C12.9002 14.1917 12.6919 14.5417 12.6919 14.9167V16.6667C12.7085 17.9333 11.6835 18.9583 10.4169 18.9583ZM3.95854 7.55833V9.89999C3.95854 10.575 4.32522 11.2 4.90855 11.5333L7.37518 12.925C8.09185 13.3333 8.54187 14.0917 8.54187 14.9167V16.6667C8.54187 17.2417 9.00854 17.7083 9.58354 17.7083H10.4169C10.9919 17.7083 11.4585 17.2417 11.4585 16.6667V14.9167C11.4585 14.0917 11.9086 13.325 12.6252 12.925L15.0919 11.5333C15.6835 11.2 16.0419 10.575 16.0419 9.89999V7.55833H3.95854Z" fill="white"/>
</svg>
