<svg width="18" height="18" viewBox="0 0 18 18" fill="none" xmlns="http://www.w3.org/2000/svg">
<path d="M14.2515 11.25C12.594 11.25 11.2515 12.5925 11.2515 14.25C11.2515 14.8125 11.409 15.345 11.6865 15.795C12.204 16.665 13.1565 17.25 14.2515 17.25C15.3465 17.25 16.299 16.665 16.8165 15.795C17.094 15.345 17.2515 14.8125 17.2515 14.25C17.2515 12.5925 15.909 11.25 14.2515 11.25ZM15.804 13.9275L14.2065 15.405C14.1015 15.5025 13.959 15.555 13.824 15.555C13.6815 15.555 13.539 15.5025 13.4265 15.39L12.684 14.6475C12.4665 14.43 12.4665 14.07 12.684 13.8525C12.9015 13.635 13.2615 13.635 13.479 13.8525L13.839 14.2125L15.039 13.1025C15.264 12.8925 15.624 12.9075 15.834 13.1325C16.044 13.3575 16.029 13.71 15.804 13.9275Z" fill="#292D32"/>
<path d="M16.5015 5.66249V5.99999C16.5015 6.41249 16.164 6.74999 15.7515 6.74999H2.25146C1.83896 6.74999 1.50146 6.41249 1.50146 5.99999V5.65499C1.50146 3.93749 2.88896 2.54999 4.60646 2.54999H13.389C15.1065 2.54999 16.5015 3.94499 16.5015 5.66249Z" fill="#292D32"/>
<path d="M1.50146 8.62505V12.3451C1.50146 14.0626 2.88896 15.4501 4.60646 15.4501H9.30146C9.73646 15.4501 10.1115 15.0826 10.074 14.6476C9.96897 13.5001 10.3365 12.2551 11.3565 11.2651C11.7765 10.8526 12.294 10.5376 12.8565 10.3576C13.794 10.0576 14.7015 10.0951 15.504 10.3651C15.9915 10.5301 16.5015 10.1776 16.5015 9.66005V8.61755C16.5015 8.20505 16.164 7.86755 15.7515 7.86755H2.25146C1.83896 7.87505 1.50146 8.21255 1.50146 8.62505ZM6.00146 12.9376H4.50146C4.19396 12.9376 3.93896 12.6826 3.93896 12.3751C3.93896 12.0676 4.19396 11.8126 4.50146 11.8126H6.00146C6.30896 11.8126 6.56396 12.0676 6.56396 12.3751C6.56396 12.6826 6.30896 12.9376 6.00146 12.9376Z" fill="#292D32"/>
</svg>
