<svg width="15" height="15" viewBox="0 0 15 15" fill="none" xmlns="http://www.w3.org/2000/svg">
<g clip-path="url(#clip0_2_194)">
<path d="M14.9921 7.64031C14.9921 7.02577 14.941 6.57732 14.8306 6.11226H7.64938V8.886H11.8646C11.7796 9.57531 11.3207 10.6134 10.3009 11.311L10.2866 11.4038L12.5572 13.1227L12.7145 13.138C14.1592 11.8342 14.9921 9.91579 14.9921 7.64031Z" fill="#4285F4"/>
<path d="M7.64935 14.9485C9.71445 14.9485 11.4481 14.2841 12.7144 13.1381L10.3009 11.311C9.65498 11.7512 8.78812 12.0585 7.64935 12.0585C5.62673 12.0585 3.91005 10.7547 3.2981 8.95255L3.2084 8.95999L0.847435 10.7455L0.816559 10.8294C2.07432 13.2709 4.65786 14.9485 7.64935 14.9485Z" fill="#34A853"/>
<path d="M3.2982 8.95254C3.13673 8.48748 3.04328 7.98916 3.04328 7.4743C3.04328 6.95937 3.13673 6.46111 3.2897 5.99605L3.28543 5.89701L0.894872 4.08281L0.816658 4.11916C0.298274 5.13235 0.000823975 6.27012 0.000823975 7.4743C0.000823975 8.67848 0.298274 9.81619 0.816658 10.8294L3.2982 8.95254Z" fill="#FBBC05"/>
<path d="M7.64936 2.89002C9.08558 2.89002 10.0544 3.49626 10.6068 4.00288L12.7654 1.9433C11.4397 0.739122 9.71446 0 7.64936 0C4.65788 0 2.07433 1.67754 0.816574 4.1191L3.28962 5.99599C3.91006 4.19387 5.62674 2.89002 7.64936 2.89002Z" fill="#EB4335"/>
</g>
<defs>
<clipPath id="clip0_2_194">
<rect width="15" height="15" fill="white"/>
</clipPath>
</defs>
</svg>
