<svg width="80" height="24" viewBox="0 0 80 24" fill="none" xmlns="http://www.w3.org/2000/svg">
<g filter="url(#filter0_d_2_422)">
<mask id="path-1-inside-1_2_422" fill="white">
<path d="M12.3677 4.63778C12.3109 4.06487 12.0671 3.61979 11.6362 3.30256C11.2053 2.98532 10.6206 2.8267 9.88192 2.8267C9.38003 2.8267 8.95626 2.89773 8.61062 3.03977C8.26497 3.17708 7.99982 3.36884 7.81516 3.61506C7.63524 3.86127 7.54528 4.14062 7.54528 4.45312C7.53581 4.71354 7.59026 4.94081 7.70863 5.13494C7.83174 5.32907 7.99982 5.49716 8.21289 5.6392C8.42596 5.77651 8.67217 5.89725 8.95153 6.00142C9.23088 6.10085 9.52918 6.18608 9.84641 6.2571L11.1532 6.5696C11.7877 6.71165 12.3701 6.90104 12.9004 7.13778C13.4307 7.37453 13.89 7.66572 14.2782 8.01136C14.6665 8.35701 14.9672 8.7642 15.1802 9.23295C15.398 9.7017 15.5093 10.2391 15.514 10.8452C15.5093 11.7353 15.282 12.5071 14.8322 13.1605C14.3871 13.8092 13.7432 14.3134 12.9004 14.6733C12.0623 15.0284 11.0514 15.206 9.86772 15.206C8.69348 15.206 7.67075 15.026 6.79954 14.6662C5.93306 14.3063 5.25598 13.7737 4.76829 13.0682C4.28533 12.358 4.03202 11.4796 4.00835 10.4332H6.9842C7.01734 10.9209 7.15702 11.3281 7.40323 11.6548C7.65418 11.9768 7.98799 12.2206 8.40465 12.3864C8.82605 12.5473 9.30191 12.6278 9.83221 12.6278C10.353 12.6278 10.8052 12.5521 11.1887 12.4006C11.577 12.2491 11.8777 12.0384 12.0907 11.7685C12.3038 11.4986 12.4103 11.1884 12.4103 10.8381C12.4103 10.5114 12.3133 10.2367 12.1191 10.0142C11.9297 9.79167 11.6504 9.60227 11.2811 9.44602C10.9165 9.28977 10.469 9.14773 9.93874 9.01989L8.35494 8.62216C7.12861 8.32386 6.16033 7.85748 5.45011 7.22301C4.73988 6.58854 4.38713 5.7339 4.39187 4.65909C4.38713 3.77841 4.62151 3.009 5.09499 2.35085C5.57321 1.69271 6.22899 1.17898 7.06232 0.809659C7.89566 0.44034 8.84263 0.255681 9.90323 0.255681C10.9828 0.255681 11.925 0.44034 12.7299 0.809659C13.5396 1.17898 14.1693 1.69271 14.6191 2.35085C15.069 3.009 15.301 3.77131 15.3152 4.63778H12.3677ZM20.6578 0.454545V15H17.5826V0.454545H20.6578ZM32.8329 5.15625C32.7335 4.81061 32.5938 4.50521 32.4139 4.24006C32.234 3.97017 32.0138 3.7429 31.7534 3.55824C31.4977 3.36884 31.2041 3.22443 30.8727 3.125C30.546 3.02557 30.1838 2.97585 29.786 2.97585C29.0427 2.97585 28.3893 3.16051 27.8258 3.52983C27.2671 3.89915 26.8315 4.43655 26.519 5.14205C26.2065 5.8428 26.0502 6.69981 26.0502 7.71307C26.0502 8.72633 26.2041 9.58807 26.5119 10.2983C26.8197 11.0085 27.2553 11.5507 27.8187 11.9247C28.3822 12.294 29.0474 12.4787 29.8145 12.4787C30.5105 12.4787 31.1047 12.3556 31.5971 12.1094C32.0943 11.8584 32.4731 11.5057 32.7335 11.0511C32.9986 10.5966 33.1312 10.0592 33.1312 9.43892L33.7562 9.53125H30.0062V7.21591H36.0929V9.0483C36.0929 10.3267 35.823 11.4252 35.2832 12.3438C34.7434 13.2576 34.0001 13.9631 33.0531 14.4602C32.1061 14.9527 31.0218 15.1989 29.8002 15.1989C28.4366 15.1989 27.2387 14.8982 26.2065 14.2969C25.1743 13.6908 24.3694 12.8314 23.7917 11.7188C23.2188 10.6013 22.9324 9.27557 22.9324 7.74148C22.9324 6.5625 23.1028 5.51136 23.4437 4.58807C23.7894 3.66004 24.2723 2.87405 24.8926 2.23011C25.5128 1.58617 26.2349 1.09612 27.0588 0.759943C27.8826 0.423768 28.7752 0.255681 29.7363 0.255681C30.5602 0.255681 31.3272 0.37642 32.0375 0.617898C32.7477 0.85464 33.3774 1.19081 33.9267 1.62642C34.4806 2.06203 34.9328 2.58049 35.2832 3.18182C35.6336 3.77841 35.8585 4.43655 35.9579 5.15625H32.8329ZM50.5691 0.454545V15H47.9128L41.5847 5.84517H41.4782V15H38.4029V0.454545H41.1017L47.3801 9.60227H47.508V0.454545H50.5691ZM60.8141 0.454545V15H57.7388V0.454545H60.8141ZM75.5105 0.454545V15H72.8542L66.5261 5.84517H66.4196V15H63.3443V0.454545H66.0431L72.3216 9.60227H72.4494V0.454545H75.5105Z"/>
</mask>
<path d="M12.3677 4.63778C12.3109 4.06487 12.0671 3.61979 11.6362 3.30256C11.2053 2.98532 10.6206 2.8267 9.88192 2.8267C9.38003 2.8267 8.95626 2.89773 8.61062 3.03977C8.26497 3.17708 7.99982 3.36884 7.81516 3.61506C7.63524 3.86127 7.54528 4.14062 7.54528 4.45312C7.53581 4.71354 7.59026 4.94081 7.70863 5.13494C7.83174 5.32907 7.99982 5.49716 8.21289 5.6392C8.42596 5.77651 8.67217 5.89725 8.95153 6.00142C9.23088 6.10085 9.52918 6.18608 9.84641 6.2571L11.1532 6.5696C11.7877 6.71165 12.3701 6.90104 12.9004 7.13778C13.4307 7.37453 13.89 7.66572 14.2782 8.01136C14.6665 8.35701 14.9672 8.7642 15.1802 9.23295C15.398 9.7017 15.5093 10.2391 15.514 10.8452C15.5093 11.7353 15.282 12.5071 14.8322 13.1605C14.3871 13.8092 13.7432 14.3134 12.9004 14.6733C12.0623 15.0284 11.0514 15.206 9.86772 15.206C8.69348 15.206 7.67075 15.026 6.79954 14.6662C5.93306 14.3063 5.25598 13.7737 4.76829 13.0682C4.28533 12.358 4.03202 11.4796 4.00835 10.4332H6.9842C7.01734 10.9209 7.15702 11.3281 7.40323 11.6548C7.65418 11.9768 7.98799 12.2206 8.40465 12.3864C8.82605 12.5473 9.30191 12.6278 9.83221 12.6278C10.353 12.6278 10.8052 12.5521 11.1887 12.4006C11.577 12.2491 11.8777 12.0384 12.0907 11.7685C12.3038 11.4986 12.4103 11.1884 12.4103 10.8381C12.4103 10.5114 12.3133 10.2367 12.1191 10.0142C11.9297 9.79167 11.6504 9.60227 11.2811 9.44602C10.9165 9.28977 10.469 9.14773 9.93874 9.01989L8.35494 8.62216C7.12861 8.32386 6.16033 7.85748 5.45011 7.22301C4.73988 6.58854 4.38713 5.7339 4.39187 4.65909C4.38713 3.77841 4.62151 3.009 5.09499 2.35085C5.57321 1.69271 6.22899 1.17898 7.06232 0.809659C7.89566 0.44034 8.84263 0.255681 9.90323 0.255681C10.9828 0.255681 11.925 0.44034 12.7299 0.809659C13.5396 1.17898 14.1693 1.69271 14.6191 2.35085C15.069 3.009 15.301 3.77131 15.3152 4.63778H12.3677ZM20.6578 0.454545V15H17.5826V0.454545H20.6578ZM32.8329 5.15625C32.7335 4.81061 32.5938 4.50521 32.4139 4.24006C32.234 3.97017 32.0138 3.7429 31.7534 3.55824C31.4977 3.36884 31.2041 3.22443 30.8727 3.125C30.546 3.02557 30.1838 2.97585 29.786 2.97585C29.0427 2.97585 28.3893 3.16051 27.8258 3.52983C27.2671 3.89915 26.8315 4.43655 26.519 5.14205C26.2065 5.8428 26.0502 6.69981 26.0502 7.71307C26.0502 8.72633 26.2041 9.58807 26.5119 10.2983C26.8197 11.0085 27.2553 11.5507 27.8187 11.9247C28.3822 12.294 29.0474 12.4787 29.8145 12.4787C30.5105 12.4787 31.1047 12.3556 31.5971 12.1094C32.0943 11.8584 32.4731 11.5057 32.7335 11.0511C32.9986 10.5966 33.1312 10.0592 33.1312 9.43892L33.7562 9.53125H30.0062V7.21591H36.0929V9.0483C36.0929 10.3267 35.823 11.4252 35.2832 12.3438C34.7434 13.2576 34.0001 13.9631 33.0531 14.4602C32.1061 14.9527 31.0218 15.1989 29.8002 15.1989C28.4366 15.1989 27.2387 14.8982 26.2065 14.2969C25.1743 13.6908 24.3694 12.8314 23.7917 11.7188C23.2188 10.6013 22.9324 9.27557 22.9324 7.74148C22.9324 6.5625 23.1028 5.51136 23.4437 4.58807C23.7894 3.66004 24.2723 2.87405 24.8926 2.23011C25.5128 1.58617 26.2349 1.09612 27.0588 0.759943C27.8826 0.423768 28.7752 0.255681 29.7363 0.255681C30.5602 0.255681 31.3272 0.37642 32.0375 0.617898C32.7477 0.85464 33.3774 1.19081 33.9267 1.62642C34.4806 2.06203 34.9328 2.58049 35.2832 3.18182C35.6336 3.77841 35.8585 4.43655 35.9579 5.15625H32.8329ZM50.5691 0.454545V15H47.9128L41.5847 5.84517H41.4782V15H38.4029V0.454545H41.1017L47.3801 9.60227H47.508V0.454545H50.5691ZM60.8141 0.454545V15H57.7388V0.454545H60.8141ZM75.5105 0.454545V15H72.8542L66.5261 5.84517H66.4196V15H63.3443V0.454545H66.0431L72.3216 9.60227H72.4494V0.454545H75.5105Z" fill="#B905D7" fill-opacity="0.7" shape-rendering="crispEdges"/>
<path d="M12.3677 4.63778L11.3726 4.73647L11.462 5.63778H12.3677V4.63778ZM8.61062 3.03977L8.97984 3.96919L8.99073 3.96471L8.61062 3.03977ZM7.81516 3.61506L7.0151 3.01501L7.00777 3.02504L7.81516 3.61506ZM7.54528 4.45312L8.54462 4.48946L8.54528 4.4713V4.45312H7.54528ZM7.70863 5.13494L6.85483 5.65555L6.85941 5.66306L6.86412 5.67049L7.70863 5.13494ZM8.21289 5.6392L7.65819 6.47125L7.66466 6.47557L7.67119 6.47978L8.21289 5.6392ZM8.95153 6.00142L8.60214 6.9384L8.60915 6.94101L8.6162 6.94352L8.95153 6.00142ZM9.84641 6.2571L10.079 5.28452L10.0719 5.28284L10.0649 5.28126L9.84641 6.2571ZM11.1532 6.5696L10.9207 7.54218L10.9277 7.54386L10.9348 7.54545L11.1532 6.5696ZM12.9004 7.13778L12.4927 8.05092L12.9004 7.13778ZM14.2782 8.01136L14.9432 7.26446L14.2782 8.01136ZM15.1802 9.23295L14.2698 9.64677L14.2733 9.65434L15.1802 9.23295ZM15.514 10.8452L16.5141 10.8505L16.514 10.8374L15.514 10.8452ZM14.8322 13.1605L14.0085 12.5935L14.0076 12.5947L14.8322 13.1605ZM12.9004 14.6733L13.2905 15.5941L13.2931 15.593L12.9004 14.6733ZM6.79954 14.6662L6.416 15.5897L6.41778 15.5905L6.79954 14.6662ZM4.76829 13.0682L3.94134 13.6305L3.9457 13.6368L4.76829 13.0682ZM4.00835 10.4332V9.43324H2.98546L3.0086 10.4559L4.00835 10.4332ZM6.9842 10.4332L7.9819 10.3654L7.91854 9.43324H6.9842V10.4332ZM7.40323 11.6548L6.60462 12.2567L6.60951 12.2632L6.6145 12.2696L7.40323 11.6548ZM8.40465 12.3864L8.03505 13.3157L8.04778 13.3205L8.40465 12.3864ZM11.1887 12.4006L10.8252 11.469L10.8213 11.4705L11.1887 12.4006ZM12.0907 11.7685L12.8756 12.3881L12.0907 11.7685ZM12.1191 10.0142L11.3575 10.6624L11.3656 10.6716L12.1191 10.0142ZM11.2811 9.44602L10.8871 10.3652L10.8914 10.367L11.2811 9.44602ZM9.93874 9.01989L9.69517 9.98982L9.70439 9.99204L9.93874 9.01989ZM8.35494 8.62216L8.5985 7.65225L8.59129 7.65049L8.35494 8.62216ZM5.45011 7.22301L4.78389 7.96877L4.78389 7.96877L5.45011 7.22301ZM4.39187 4.65909L5.39191 4.6635L5.39185 4.65371L4.39187 4.65909ZM5.09499 2.35085L4.286 1.76302L4.28324 1.76686L5.09499 2.35085ZM12.7299 0.809659L12.3129 1.71856L12.3149 1.71948L12.7299 0.809659ZM14.6191 2.35085L13.7935 2.91511L13.7935 2.91511L14.6191 2.35085ZM15.3152 4.63778V5.63778H16.3317L16.315 4.62139L15.3152 4.63778ZM13.3628 4.53909C13.2805 3.7084 12.9068 2.99629 12.2291 2.49728L11.0433 4.10783C11.2273 4.2433 11.3413 4.42133 11.3726 4.73647L13.3628 4.53909ZM12.2291 2.49728C11.5719 2.01342 10.7545 1.8267 9.88193 1.8267V3.8267C10.4867 3.8267 10.8387 3.95722 11.0433 4.10783L12.2291 2.49728ZM9.88193 1.8267C9.2918 1.8267 8.73042 1.90939 8.2305 2.11483L8.99073 3.96471C9.18211 3.88607 9.46826 3.8267 9.88193 3.8267V1.8267ZM8.24142 2.11042C7.76042 2.30151 7.3314 2.59341 7.01516 3.01506L8.61516 4.21506C8.66825 4.14428 8.76953 4.05266 8.97981 3.96912L8.24142 2.11042ZM7.00777 3.02504C6.69941 3.44701 6.54528 3.93414 6.54528 4.45312H8.54528C8.54528 4.34711 8.57107 4.27553 8.62256 4.20507L7.00777 3.02504ZM6.54594 4.41679C6.53041 4.84368 6.62009 5.27056 6.85483 5.65555L8.56243 4.61434C8.56043 4.61106 8.5412 4.58341 8.54462 4.48946L6.54594 4.41679ZM6.86412 5.67049C7.07017 5.99541 7.34217 6.26058 7.65819 6.47125L8.76759 4.80715C8.65747 4.73374 8.5933 4.66273 8.55314 4.5994L6.86412 5.67049ZM7.67119 6.47978C7.95419 6.66215 8.26686 6.81338 8.60214 6.9384L9.30091 5.06444C9.07749 4.98113 8.89773 4.89088 8.75459 4.79863L7.67119 6.47978ZM8.6162 6.94352C8.93723 7.05779 9.27484 7.15389 9.62794 7.23295L10.0649 5.28126C9.78352 5.21827 9.52454 5.14392 9.28685 5.05932L8.6162 6.94352ZM9.61384 7.22968L10.9207 7.54218L11.3858 5.59702L10.079 5.28452L9.61384 7.22968ZM10.9348 7.54545C11.5118 7.67464 12.03 7.84433 12.4927 8.05092L13.308 6.22465C12.7102 5.95776 12.0636 5.74865 11.3717 5.59376L10.9348 7.54545ZM12.4927 8.05092C12.9401 8.25064 13.3102 8.4884 13.6133 8.75827L14.9432 7.26446C14.4698 6.84303 13.9213 6.49841 13.308 6.22465L12.4927 8.05092ZM13.6133 8.75827C13.8984 9.01212 14.115 9.30618 14.2699 9.64676L16.0906 8.81915C15.8193 8.22223 15.4345 7.7019 14.9432 7.26446L13.6133 8.75827ZM14.2733 9.65434C14.4214 9.973 14.5102 10.3654 14.5141 10.853L16.514 10.8374C16.5083 10.1128 16.3746 9.43041 16.0871 8.81157L14.2733 9.65434ZM14.514 10.8399C14.5102 11.5548 14.3309 12.1252 14.0085 12.5935L15.6559 13.7275C16.2331 12.889 16.5083 11.9159 16.514 10.8505L14.514 10.8399ZM14.0076 12.5947C13.6867 13.0624 13.2052 13.4558 12.5077 13.7536L13.2931 15.593C14.2812 15.1711 15.0875 14.5559 15.6568 13.7263L14.0076 12.5947ZM12.5102 13.7525C11.8267 14.0422 10.9558 14.206 9.86772 14.206V16.206C11.147 16.206 12.298 16.0146 13.2905 15.594L12.5102 13.7525ZM9.86772 14.206C8.79335 14.206 7.90567 14.0411 7.1813 13.7419L6.41778 15.5905C7.43583 16.011 8.59361 16.206 9.86772 16.206V14.206ZM7.18308 13.7427C6.47667 13.4493 5.95914 13.0323 5.59088 12.4995L3.9457 13.6368C4.55282 14.5151 5.38945 15.1634 6.416 15.5897L7.18308 13.7427ZM5.59521 12.5059C5.24233 11.9869 5.02836 11.3067 5.00809 10.4106L3.0086 10.4559C3.03568 11.6526 3.32834 12.729 3.94136 13.6305L5.59521 12.5059ZM4.00835 11.4332H6.9842V9.43324H4.00835V11.4332ZM5.9865 10.501C6.0302 11.144 6.22054 11.747 6.60462 12.2567L8.20184 11.053C8.0935 10.9092 8.00448 10.6978 7.9819 10.3654L5.9865 10.501ZM6.6145 12.2696C6.9853 12.7453 7.46997 13.0908 8.03508 13.3156L8.77422 11.4572C8.506 11.3505 8.32306 11.2083 8.19196 11.0401L6.6145 12.2696ZM8.04778 13.3205C8.60123 13.5319 9.20093 13.6278 9.83221 13.6278V11.6278C9.40288 11.6278 9.05088 11.5628 8.76152 11.4522L8.04778 13.3205ZM9.83221 13.6278C10.4471 13.6278 11.0294 13.5387 11.5562 13.3306L10.8213 11.4705C10.5811 11.5654 10.259 11.6278 9.83221 11.6278V13.6278ZM11.5523 13.3321C12.0711 13.1297 12.5311 12.8245 12.8756 12.3881L11.3058 11.1488C11.2242 11.2522 11.0829 11.3684 10.8252 11.469L11.5523 13.3321ZM12.8756 12.3881C13.2309 11.9381 13.4103 11.4087 13.4103 10.8381H11.4103C11.4103 10.9682 11.3767 11.059 11.3058 11.1488L12.8756 12.3881ZM13.4103 10.8381C13.4103 10.2973 13.243 9.7813 12.8727 9.35683L11.3656 10.6716C11.3836 10.6922 11.4103 10.7255 11.4103 10.8381H13.4103ZM12.8807 9.36609C12.5599 8.98912 12.133 8.72063 11.6707 8.52505L10.8914 10.367C11.1678 10.4839 11.2996 10.5942 11.3576 10.6623L12.8807 9.36609ZM11.675 8.52688C11.2437 8.34204 10.7393 8.18423 10.1731 8.04774L9.70439 9.99204C10.1988 10.1112 10.5893 10.2375 10.8872 10.3652L11.675 8.52688ZM10.1823 8.05L8.5985 7.65227L8.11138 9.59204L9.69518 9.98977L10.1823 8.05ZM8.59129 7.65049C7.47464 7.37887 6.67064 6.97244 6.11632 6.47725L4.78389 7.96877C5.65003 8.74252 6.78258 9.26885 8.11858 9.59383L8.59129 7.65049ZM6.11632 6.47725C5.64837 6.05921 5.3882 5.49296 5.39186 4.6635L3.39188 4.65469C3.38606 5.97484 3.83139 7.11787 4.78389 7.96877L6.11632 6.47725ZM5.39185 4.65371C5.38815 3.9652 5.56752 3.40638 5.90675 2.93485L4.28324 1.76686C3.6755 2.61161 3.38611 3.59161 3.39188 4.66447L5.39185 4.65371ZM5.90398 2.93868C6.26665 2.43956 6.77534 2.03065 7.4675 1.7239L6.65715 -0.10458C5.68263 0.327307 4.87978 0.945854 4.28601 1.76303L5.90398 2.93868ZM7.4675 1.7239C8.15405 1.41963 8.95956 1.25568 9.90323 1.25568V-0.744319C8.72569 -0.744319 7.63726 -0.538948 6.65715 -0.10458L7.4675 1.7239ZM9.90323 1.25568C10.8697 1.25568 11.6642 1.42093 12.3129 1.71855L13.147 -0.099237C12.1858 -0.540246 11.0959 -0.744319 9.90323 -0.744319V1.25568ZM12.3149 1.71948C12.9786 2.02221 13.4582 2.42443 13.7935 2.91511L15.4447 1.7866C14.8805 0.96099 14.1006 0.335747 13.1449 -0.10016L12.3149 1.71948ZM13.7935 2.91511C14.1233 3.39754 14.304 3.96565 14.3153 4.65417L16.315 4.62139C16.2979 3.57696 16.0146 2.62046 15.4447 1.78659L13.7935 2.91511ZM15.3152 3.63778H12.3677V5.63778H15.3152V3.63778ZM20.6578 0.454545H21.6578V-0.545455H20.6578V0.454545ZM20.6578 15V16H21.6578V15H20.6578ZM17.5826 15H16.5826V16H17.5826V15ZM17.5826 0.454545V-0.545455H16.5826V0.454545H17.5826ZM19.6578 0.454545V15H21.6578V0.454545H19.6578ZM20.6578 14H17.5826V16H20.6578V14ZM18.5826 15V0.454545H16.5826V15H18.5826ZM17.5826 1.45455H20.6578V-0.545455H17.5826V1.45455ZM32.8329 5.15625L31.8719 5.43271L32.08 6.15625H32.8329V5.15625ZM32.4139 4.24006L31.5818 4.79478L31.5864 4.80156L32.4139 4.24006ZM31.7534 3.55824L31.1581 4.3618L31.1665 4.36797L31.1749 4.37397L31.7534 3.55824ZM30.8727 3.125L30.5815 4.08168L30.5853 4.08283L30.8727 3.125ZM27.8258 3.52983L27.2776 2.69347L27.2744 2.69561L27.8258 3.52983ZM26.519 5.14205L27.4323 5.54933L27.4333 5.54704L26.519 5.14205ZM27.8187 11.9247L27.2656 12.7579L27.2705 12.7611L27.8187 11.9247ZM31.5971 12.1094L32.0443 13.0038L32.0477 13.0021L31.5971 12.1094ZM32.7335 11.0511L31.8697 10.5473L31.8658 10.554L32.7335 11.0511ZM33.1312 9.43892L33.2774 8.44966L32.1312 8.28034V9.43892H33.1312ZM33.7562 9.53125V10.5312L33.9024 8.54199L33.7562 9.53125ZM30.0062 9.53125H29.0062V10.5312H30.0062V9.53125ZM30.0062 7.21591V6.21591H29.0062V7.21591H30.0062ZM36.0929 7.21591H37.0929V6.21591H36.0929V7.21591ZM35.2832 12.3438L36.1442 12.8523L36.1454 12.8504L35.2832 12.3438ZM33.0531 14.4602L33.5144 15.3475L33.5179 15.3456L33.0531 14.4602ZM26.2065 14.2969L25.7002 15.1592L25.7031 15.1609L26.2065 14.2969ZM23.7917 11.7188L22.9019 12.175L22.9042 12.1795L23.7917 11.7188ZM23.4437 4.58807L22.5066 4.23904L22.5056 4.24169L23.4437 4.58807ZM24.8926 2.23011L25.6128 2.92386V2.92386L24.8926 2.23011ZM27.0588 0.759943L26.681 -0.165943L27.0588 0.759943ZM32.0375 0.617898L31.7156 1.56469L31.7212 1.56658L32.0375 0.617898ZM33.9267 1.62642L33.3053 2.40992L33.3086 2.41251L33.9267 1.62642ZM35.2832 3.18182L34.4192 3.68527L34.4209 3.68824L35.2832 3.18182ZM35.9579 5.15625V6.15625H37.1056L36.9485 5.01939L35.9579 5.15625ZM33.7939 4.87979C33.6689 4.44495 33.4873 4.04105 33.2414 3.67856L31.5864 4.80156C31.7003 4.96937 31.7981 5.17626 31.8719 5.43271L33.7939 4.87979ZM33.2459 3.68536C32.9993 3.31534 32.6936 2.99908 32.3318 2.74251L31.1749 4.37397C31.3339 4.48672 31.4687 4.625 31.5818 4.79476L33.2459 3.68536ZM32.3486 2.75468C31.9922 2.49067 31.5926 2.29693 31.16 2.16717L30.5853 4.08283C30.8157 4.15194 31.0032 4.24702 31.1581 4.3618L32.3486 2.75468ZM31.1639 2.16833C30.7287 2.0359 30.2666 1.97585 29.786 1.97585V3.97585C30.1009 3.97585 30.3633 4.01524 30.5815 4.08167L31.1639 2.16833ZM29.786 1.97585C28.8688 1.97585 28.0206 2.20647 27.2776 2.69348L28.374 4.36618C28.7579 4.11455 29.2165 3.97585 29.786 3.97585V1.97585ZM27.2744 2.69561C26.533 3.18566 25.9826 3.88394 25.6047 4.73705L27.4333 5.54704C27.6804 4.98916 28.0012 4.61264 28.3773 4.36405L27.2744 2.69561ZM25.6057 4.73476C25.2208 5.59776 25.0502 6.60231 25.0502 7.71307H27.0502C27.0502 6.79731 27.1922 6.08784 27.4323 5.54933L25.6057 4.73476ZM25.0502 7.71307C25.0502 8.8228 25.2182 9.82783 25.5943 10.6959L27.4295 9.90069C27.1901 9.3483 27.0502 8.62985 27.0502 7.71307H25.0502ZM25.5943 10.6959C25.9676 11.5572 26.5188 12.2621 27.2656 12.7578L28.3718 11.0916C27.9917 10.8393 27.6718 10.4599 27.4295 9.90069L25.5943 10.6959ZM27.2705 12.7611C28.0186 13.2514 28.8804 13.4787 29.8145 13.4787V11.4787C29.2144 11.4787 28.7457 11.3366 28.3669 11.0884L27.2705 12.7611ZM29.8145 13.4787C30.6258 13.4787 31.3813 13.3353 32.0443 13.0038L31.1499 11.2149C30.8281 11.3758 30.3952 11.4787 29.8145 11.4787V13.4787ZM32.0477 13.0021C32.7081 12.6688 33.2372 12.1836 33.6012 11.5482L31.8658 10.554C31.7089 10.8278 31.4805 11.0481 31.1465 11.2167L32.0477 13.0021ZM33.5973 11.555C33.9664 10.9222 34.1312 10.2044 34.1312 9.43892H32.1312C32.1312 9.91401 32.0309 10.271 31.8697 10.5473L33.5973 11.555ZM32.9851 10.4282L33.6101 10.5205L33.9024 8.54199L33.2774 8.44966L32.9851 10.4282ZM33.7562 8.53125H30.0062V10.5312H33.7562V8.53125ZM31.0062 9.53125V7.21591H29.0062V9.53125H31.0062ZM30.0062 8.21591H36.0929V6.21591H30.0062V8.21591ZM35.0929 7.21591V9.04829H37.0929V7.21591H35.0929ZM35.0929 9.04829C35.0929 10.1843 34.854 11.1003 34.421 11.8371L36.1454 12.8504C36.7919 11.7501 37.0929 10.4691 37.0929 9.04829H35.0929ZM34.4222 11.8352C33.9777 12.5877 33.3721 13.1633 32.5883 13.5748L33.5179 15.3456C34.628 14.7628 35.5092 13.9274 36.1442 12.8523L34.4222 11.8352ZM32.5917 13.573C31.8066 13.9813 30.8846 14.1989 29.8002 14.1989V16.1989C31.1591 16.1989 32.4056 15.924 33.5144 15.3474L32.5917 13.573ZM29.8002 14.1989C28.588 14.1989 27.5687 13.9331 26.7099 13.4328L25.7031 15.1609C26.9087 15.8633 28.2852 16.1989 29.8002 16.1989V14.1989ZM26.7128 13.4345C25.8508 12.9284 25.1745 12.2119 24.6793 11.258L22.9042 12.1795C23.5643 13.451 24.4978 14.4532 25.7002 15.1592L26.7128 13.4345ZM24.6816 11.2625C24.1954 10.3142 23.9324 9.15158 23.9324 7.74148H21.9324C21.9324 9.39956 22.2422 10.8885 22.9019 12.175L24.6816 11.2625ZM23.9324 7.74148C23.9324 6.65794 24.0891 5.72732 24.3818 4.93444L22.5056 4.24169C22.1166 5.2954 21.9324 6.46706 21.9324 7.74148H23.9324ZM24.3808 4.93709C24.6838 4.12373 25.0975 3.45883 25.6128 2.92386L24.1724 1.53637C23.4471 2.28927 22.895 3.19634 22.5066 4.23904L24.3808 4.93709ZM25.6128 2.92386C26.1368 2.37982 26.7424 1.96907 27.4366 1.68583L26.681 -0.165943C25.7274 0.223159 24.8889 0.792526 24.1724 1.53637L25.6128 2.92386ZM27.4366 1.68583C28.1312 1.4024 28.8942 1.25568 29.7363 1.25568V-0.744319C28.6561 -0.744319 27.6341 -0.554868 26.681 -0.165943L27.4366 1.68583ZM29.7363 1.25568C30.4614 1.25568 31.1187 1.36173 31.7156 1.56467L32.3594 -0.328875C31.5358 -0.608888 30.659 -0.744319 29.7363 -0.744319V1.25568ZM31.7212 1.56658C32.3284 1.76898 32.8534 2.05153 33.3053 2.40992L34.5481 0.842922C33.9015 0.330101 33.1669 -0.0597053 32.3537 -0.330786L31.7212 1.56658ZM33.3086 2.41251C33.7648 2.77124 34.133 3.1942 34.4192 3.68526L36.1472 2.67837C35.7326 1.96679 35.1965 1.35282 34.5448 0.840334L33.3086 2.41251ZM34.4209 3.68824C34.7013 4.16565 34.885 4.6972 34.9673 5.29311L36.9485 5.01939C36.832 4.17591 36.5659 3.39117 36.1455 2.6754L34.4209 3.68824ZM35.9579 4.15625H32.8329V6.15625H35.9579V4.15625ZM50.5691 0.454545H51.5691V-0.545455H50.5691V0.454545ZM50.5691 15V16H51.5691V15H50.5691ZM47.9128 15L47.0902 15.5686L47.3884 16H47.9128V15ZM41.5847 5.84517L42.4073 5.27656L42.1091 4.84517H41.5847V5.84517ZM41.4782 5.84517V4.84517H40.4782V5.84517H41.4782ZM41.4782 15V16H42.4782V15H41.4782ZM38.4029 15H37.4029V16H38.4029V15ZM38.4029 0.454545V-0.545455H37.4029V0.454545H38.4029ZM41.1017 0.454545L41.9262 -0.111331L41.6283 -0.545455H41.1017V0.454545ZM47.3801 9.60227L46.5557 10.1681L46.8536 10.6023H47.3801V9.60227ZM47.508 9.60227V10.6023H48.508V9.60227H47.508ZM47.508 0.454545V-0.545455H46.508V0.454545H47.508ZM49.5691 0.454545V15H51.5691V0.454545H49.5691ZM50.5691 14H47.9128V16H50.5691V14ZM48.7354 14.4314L42.4073 5.27656L40.7621 6.41378L47.0902 15.5686L48.7354 14.4314ZM41.5847 4.84517H41.4782V6.84517H41.5847V4.84517ZM40.4782 5.84517V15H42.4782V5.84517H40.4782ZM41.4782 14H38.4029V16H41.4782V14ZM39.4029 15V0.454545H37.4029V15H39.4029ZM38.4029 1.45455H41.1017V-0.545455H38.4029V1.45455ZM40.2773 1.02042L46.5557 10.1681L48.2046 9.0364L41.9262 -0.111331L40.2773 1.02042ZM47.3801 10.6023H47.508V8.60227H47.3801V10.6023ZM48.508 9.60227V0.454545H46.508V9.60227H48.508ZM47.508 1.45455H50.5691V-0.545455H47.508V1.45455ZM60.8141 0.454545H61.8141V-0.545455H60.8141V0.454545ZM60.8141 15V16H61.8141V15H60.8141ZM57.7388 15H56.7388V16H57.7388V15ZM57.7388 0.454545V-0.545455H56.7388V0.454545H57.7388ZM59.8141 0.454545V15H61.8141V0.454545H59.8141ZM60.8141 14H57.7388V16H60.8141V14ZM58.7388 15V0.454545H56.7388V15H58.7388ZM57.7388 1.45455H60.8141V-0.545455H57.7388V1.45455ZM75.5105 0.454545H76.5105V-0.545455H75.5105V0.454545ZM75.5105 15V16H76.5105V15H75.5105ZM72.8542 15L72.0316 15.5686L72.3298 16H72.8542V15ZM66.5261 5.84517L67.3487 5.27656L67.0505 4.84517H66.5261V5.84517ZM66.4196 5.84517V4.84517H65.4196V5.84517H66.4196ZM66.4196 15V16H67.4196V15H66.4196ZM63.3443 15H62.3443V16H63.3443V15ZM63.3443 0.454545V-0.545455H62.3443V0.454545H63.3443ZM66.0431 0.454545L66.8676 -0.111331L66.5697 -0.545455H66.0431V0.454545ZM72.3216 9.60227L71.4971 10.1681L71.795 10.6023H72.3216V9.60227ZM72.4494 9.60227V10.6023H73.4494V9.60227H72.4494ZM72.4494 0.454545V-0.545455H71.4494V0.454545H72.4494ZM74.5105 0.454545V15H76.5105V0.454545H74.5105ZM75.5105 14H72.8542V16H75.5105V14ZM73.6768 14.4314L67.3487 5.27656L65.7035 6.41378L72.0316 15.5686L73.6768 14.4314ZM66.5261 4.84517H66.4196V6.84517H66.5261V4.84517ZM65.4196 5.84517V15H67.4196V5.84517H65.4196ZM66.4196 14H63.3443V16H66.4196V14ZM64.3443 15V0.454545H62.3443V15H64.3443ZM63.3443 1.45455H66.0431V-0.545455H63.3443V1.45455ZM65.2187 1.02042L71.4971 10.1681L73.146 9.0364L66.8676 -0.111331L65.2187 1.02042ZM72.3216 10.6023H72.4494V8.60227H72.3216V10.6023ZM73.4494 9.60227V0.454545H71.4494V9.60227H73.4494ZM72.4494 1.45455H75.5105V-0.545455H72.4494V1.45455Z" fill="black" fill-opacity="0.2" mask="url(#path-1-inside-1_2_422)"/>
</g>
<defs>
<filter id="filter0_d_2_422" x="0.0083313" y="0.255684" width="79.5021" height="22.9503" filterUnits="userSpaceOnUse" color-interpolation-filters="sRGB">
<feFlood flood-opacity="0" result="BackgroundImageFix"/>
<feColorMatrix in="SourceAlpha" type="matrix" values="0 0 0 0 0 0 0 0 0 0 0 0 0 0 0 0 0 0 127 0" result="hardAlpha"/>
<feOffset dy="4"/>
<feGaussianBlur stdDeviation="2"/>
<feComposite in2="hardAlpha" operator="out"/>
<feColorMatrix type="matrix" values="0 0 0 0 0 0 0 0 0 0 0 0 0 0 0 0 0 0 0.25 0"/>
<feBlend mode="normal" in2="BackgroundImageFix" result="effect1_dropShadow_2_422"/>
<feBlend mode="normal" in="SourceGraphic" in2="effect1_dropShadow_2_422" result="shape"/>
</filter>
</defs>
</svg>
