<svg width="109" height="12" viewBox="0 0 109 12" fill="none" xmlns="http://www.w3.org/2000/svg">
<path d="M3.14418 8.40874V0.866122H5.05114V8.40874H3.14418ZM0.326349 5.59091V3.68395H7.86896V5.59091H0.326349ZM34.7859 0.272727H36.631V5.94034C36.631 6.5767 36.479 7.13352 36.1751 7.6108C35.8739 8.08807 35.4521 8.46023 34.9094 8.72727C34.3668 8.99148 33.7347 9.12358 33.0131 9.12358C32.2887 9.12358 31.6552 8.99148 31.1126 8.72727C30.57 8.46023 30.1481 8.08807 29.8469 7.6108C29.5458 7.13352 29.3952 6.5767 29.3952 5.94034V0.272727H31.2404V5.78267C31.2404 6.11506 31.3129 6.41051 31.4577 6.66903C31.6055 6.92756 31.8129 7.13068 32.0799 7.27841C32.3469 7.42614 32.658 7.5 33.0131 7.5C33.3711 7.5 33.6822 7.42614 33.9464 7.27841C34.2134 7.13068 34.4194 6.92756 34.5643 6.66903C34.712 6.41051 34.7859 6.11506 34.7859 5.78267V0.272727ZM38.1151 11.4545V2.45455H39.9048V3.55398H39.9858C40.0653 3.37784 40.1804 3.19886 40.331 3.01705C40.4844 2.83239 40.6832 2.67898 40.9276 2.55682C41.1747 2.43182 41.4815 2.36932 41.848 2.36932C42.3253 2.36932 42.7656 2.49432 43.169 2.74432C43.5724 2.99148 43.8949 3.36506 44.1364 3.86506C44.3778 4.36222 44.4986 4.9858 44.4986 5.7358C44.4986 6.46591 44.3807 7.08239 44.1449 7.58523C43.9119 8.08523 43.5938 8.46449 43.1903 8.72301C42.7898 8.97869 42.3409 9.10653 41.8438 9.10653C41.4915 9.10653 41.1918 9.0483 40.9446 8.93182C40.7003 8.81534 40.5 8.66903 40.3438 8.4929C40.1875 8.31392 40.0682 8.13352 39.9858 7.9517H39.9304V11.4545H38.1151ZM39.892 5.72727C39.892 6.11648 39.946 6.45597 40.054 6.74574C40.1619 7.03551 40.3182 7.26136 40.5227 7.4233C40.7273 7.58239 40.9759 7.66193 41.2685 7.66193C41.5639 7.66193 41.8139 7.58097 42.0185 7.41903C42.223 7.25426 42.3778 7.02699 42.483 6.73722C42.5909 6.4446 42.6449 6.10795 42.6449 5.72727C42.6449 5.34943 42.5923 5.01705 42.4872 4.73011C42.3821 4.44318 42.2273 4.21875 42.0227 4.05682C41.8182 3.89489 41.5668 3.81392 41.2685 3.81392C40.973 3.81392 40.723 3.89205 40.5185 4.0483C40.3168 4.20455 40.1619 4.42614 40.054 4.71307C39.946 5 39.892 5.33807 39.892 5.72727ZM47.5241 0.272727V9H45.7088V0.272727H47.5241ZM51.9357 9.12784C51.2738 9.12784 50.7013 8.98722 50.2184 8.70597C49.7383 8.42187 49.3675 8.02699 49.1062 7.52131C48.8448 7.01278 48.7141 6.4233 48.7141 5.75284C48.7141 5.0767 48.8448 4.4858 49.1062 3.98011C49.3675 3.47159 49.7383 3.0767 50.2184 2.79545C50.7013 2.51136 51.2738 2.36932 51.9357 2.36932C52.5977 2.36932 53.1687 2.51136 53.6488 2.79545C54.1317 3.0767 54.5039 3.47159 54.7653 3.98011C55.0266 4.4858 55.1573 5.0767 55.1573 5.75284C55.1573 6.4233 55.0266 7.01278 54.7653 7.52131C54.5039 8.02699 54.1317 8.42187 53.6488 8.70597C53.1687 8.98722 52.5977 9.12784 51.9357 9.12784ZM51.9442 7.72159C52.2454 7.72159 52.4968 7.63636 52.6985 7.46591C52.9002 7.29261 53.0522 7.05682 53.1545 6.75852C53.2596 6.46023 53.3121 6.12074 53.3121 5.74006C53.3121 5.35938 53.2596 5.01989 53.1545 4.72159C53.0522 4.4233 52.9002 4.1875 52.6985 4.0142C52.4968 3.84091 52.2454 3.75426 51.9442 3.75426C51.6403 3.75426 51.3846 3.84091 51.1772 4.0142C50.9727 4.1875 50.8178 4.4233 50.7127 4.72159C50.6104 5.01989 50.5593 5.35938 50.5593 5.74006C50.5593 6.12074 50.6104 6.46023 50.7127 6.75852C50.8178 7.05682 50.9727 7.29261 51.1772 7.46591C51.3846 7.63636 51.6403 7.72159 51.9442 7.72159ZM58.2042 9.12358C57.7866 9.12358 57.4144 9.05114 57.0877 8.90625C56.761 8.75852 56.5025 8.54119 56.3121 8.25426C56.1246 7.96449 56.0309 7.60369 56.0309 7.17188C56.0309 6.80824 56.0977 6.50284 56.2312 6.25568C56.3647 6.00852 56.5465 5.80966 56.7766 5.65909C57.0067 5.50852 57.2681 5.39489 57.5607 5.31818C57.8562 5.24148 58.1658 5.1875 58.4897 5.15625C58.8704 5.11648 59.1772 5.07955 59.4102 5.04545C59.6431 5.00852 59.8121 4.95455 59.9173 4.88352C60.0224 4.8125 60.0749 4.70739 60.0749 4.56818V4.54261C60.0749 4.27273 59.9897 4.06392 59.8192 3.91619C59.6516 3.76847 59.413 3.6946 59.1033 3.6946C58.7766 3.6946 58.5167 3.76705 58.3235 3.91193C58.1303 4.05398 58.0025 4.23295 57.94 4.44886L56.261 4.3125C56.3462 3.91477 56.5138 3.57102 56.7638 3.28125C57.0138 2.98864 57.3363 2.7642 57.7312 2.60795C58.1289 2.44886 58.5891 2.36932 59.1119 2.36932C59.4755 2.36932 59.8235 2.41193 60.1559 2.49716C60.4911 2.58239 60.788 2.71449 61.0465 2.89347C61.3079 3.07244 61.5138 3.30256 61.6644 3.58381C61.815 3.86222 61.8903 4.19602 61.8903 4.58523V9H60.1687V8.09233H60.1175C60.0124 8.29688 59.8718 8.47727 59.6957 8.63352C59.5195 8.78693 59.3079 8.90767 59.0607 8.99574C58.8136 9.08097 58.5281 9.12358 58.2042 9.12358ZM58.7241 7.87074C58.9911 7.87074 59.2269 7.81818 59.4315 7.71307C59.636 7.60511 59.7965 7.46023 59.913 7.27841C60.0295 7.09659 60.0877 6.89062 60.0877 6.66051V5.96591C60.0309 6.00284 59.9528 6.03693 59.8533 6.06818C59.7567 6.09659 59.6474 6.12358 59.5252 6.14915C59.4031 6.17187 59.2809 6.19318 59.1587 6.21307C59.0366 6.23011 58.9258 6.24574 58.8263 6.25994C58.6133 6.29119 58.4272 6.34091 58.2681 6.40909C58.109 6.47727 57.9854 6.5696 57.8974 6.68608C57.8093 6.79972 57.7653 6.94176 57.7653 7.11222C57.7653 7.35938 57.8548 7.5483 58.0337 7.67898C58.2156 7.80682 58.4457 7.87074 58.7241 7.87074ZM65.7106 9.10653C65.2134 9.10653 64.7631 8.97869 64.3597 8.72301C63.9592 8.46449 63.641 8.08523 63.4052 7.58523C63.1722 7.08239 63.0558 6.46591 63.0558 5.7358C63.0558 4.9858 63.1765 4.36222 63.418 3.86506C63.6594 3.36506 63.9805 2.99148 64.381 2.74432C64.7844 2.49432 65.2262 2.36932 65.7063 2.36932C66.0728 2.36932 66.3782 2.43182 66.6225 2.55682C66.8697 2.67898 67.0685 2.83239 67.2191 3.01705C67.3725 3.19886 67.489 3.37784 67.5685 3.55398H67.6239V0.272727H69.435V9H67.6452V7.9517H67.5685C67.4833 8.13352 67.3626 8.31392 67.2063 8.4929C67.0529 8.66903 66.8526 8.81534 66.6055 8.93182C66.3612 9.0483 66.0629 9.10653 65.7106 9.10653ZM66.2859 7.66193C66.5785 7.66193 66.8256 7.58239 67.0273 7.4233C67.2319 7.26136 67.3881 7.03551 67.4961 6.74574C67.6069 6.45597 67.6623 6.11648 67.6623 5.72727C67.6623 5.33807 67.6083 5 67.5004 4.71307C67.3924 4.42614 67.2362 4.20455 67.0316 4.0483C66.8271 3.89205 66.5785 3.81392 66.2859 3.81392C65.9876 3.81392 65.7362 3.89489 65.5316 4.05682C65.3271 4.21875 65.1722 4.44318 65.0671 4.73011C64.962 5.01705 64.9094 5.34943 64.9094 5.72727C64.9094 6.10795 64.962 6.4446 65.0671 6.73722C65.1751 7.02699 65.3299 7.25426 65.5316 7.41903C65.7362 7.58097 65.9876 7.66193 66.2859 7.66193ZM75.5842 0.272727V9H73.739V0.272727H75.5842ZM77.0682 9V2.45455H78.7983V3.60938H78.875C79.0114 3.22585 79.2386 2.9233 79.5568 2.7017C79.875 2.48011 80.2557 2.36932 80.6989 2.36932C81.1477 2.36932 81.5298 2.48153 81.8452 2.70597C82.1605 2.92756 82.3707 3.22869 82.4759 3.60938H82.544C82.6776 3.23438 82.919 2.93466 83.2685 2.71023C83.6207 2.48295 84.0369 2.36932 84.517 2.36932C85.1278 2.36932 85.6236 2.56392 86.0043 2.95312C86.3878 3.33949 86.5795 3.88778 86.5795 4.59801V9H84.7685V4.95597C84.7685 4.59233 84.6719 4.3196 84.4787 4.13778C84.2855 3.95597 84.044 3.86506 83.7543 3.86506C83.4247 3.86506 83.1676 3.97017 82.983 4.1804C82.7983 4.38778 82.706 4.66193 82.706 5.00284V9H80.946V4.91761C80.946 4.59659 80.8537 4.34091 80.669 4.15057C80.4872 3.96023 80.2472 3.86506 79.9489 3.86506C79.7472 3.86506 79.5653 3.91619 79.4034 4.01847C79.2443 4.1179 79.1179 4.25852 79.0241 4.44034C78.9304 4.61932 78.8835 4.82955 78.8835 5.07102V9H77.0682ZM89.88 9.12358C89.4624 9.12358 89.0902 9.05114 88.7635 8.90625C88.4368 8.75852 88.1783 8.54119 87.9879 8.25426C87.8004 7.96449 87.7067 7.60369 87.7067 7.17188C87.7067 6.80824 87.7734 6.50284 87.907 6.25568C88.0405 6.00852 88.2223 5.80966 88.4524 5.65909C88.6825 5.50852 88.9439 5.39489 89.2365 5.31818C89.532 5.24148 89.8416 5.1875 90.1655 5.15625C90.5462 5.11648 90.853 5.07955 91.0859 5.04545C91.3189 5.00852 91.4879 4.95455 91.593 4.88352C91.6982 4.8125 91.7507 4.70739 91.7507 4.56818V4.54261C91.7507 4.27273 91.6655 4.06392 91.495 3.91619C91.3274 3.76847 91.0888 3.6946 90.7791 3.6946C90.4524 3.6946 90.1925 3.76705 89.9993 3.91193C89.8061 4.05398 89.6783 4.23295 89.6158 4.44886L87.9368 4.3125C88.022 3.91477 88.1896 3.57102 88.4396 3.28125C88.6896 2.98864 89.0121 2.7642 89.407 2.60795C89.8047 2.44886 90.2649 2.36932 90.7876 2.36932C91.1513 2.36932 91.4993 2.41193 91.8317 2.49716C92.1669 2.58239 92.4638 2.71449 92.7223 2.89347C92.9837 3.07244 93.1896 3.30256 93.3402 3.58381C93.4908 3.86222 93.5661 4.19602 93.5661 4.58523V9H91.8445V8.09233H91.7933C91.6882 8.29688 91.5476 8.47727 91.3714 8.63352C91.1953 8.78693 90.9837 8.90767 90.7365 8.99574C90.4893 9.08097 90.2038 9.12358 89.88 9.12358ZM90.3999 7.87074C90.6669 7.87074 90.9027 7.81818 91.1072 7.71307C91.3118 7.60511 91.4723 7.46023 91.5888 7.27841C91.7053 7.09659 91.7635 6.89062 91.7635 6.66051V5.96591C91.7067 6.00284 91.6286 6.03693 91.5291 6.06818C91.4325 6.09659 91.3232 6.12358 91.201 6.14915C91.0788 6.17187 90.9567 6.19318 90.8345 6.21307C90.7124 6.23011 90.6016 6.24574 90.5021 6.25994C90.2891 6.29119 90.103 6.34091 89.9439 6.40909C89.7848 6.47727 89.6612 6.5696 89.5732 6.68608C89.4851 6.79972 89.4411 6.94176 89.4411 7.11222C89.4411 7.35938 89.5305 7.5483 89.7095 7.67898C89.8913 7.80682 90.1214 7.87074 90.3999 7.87074ZM97.9233 11.5909C97.3352 11.5909 96.831 11.5099 96.4105 11.348C95.9929 11.1889 95.6605 10.9716 95.4134 10.696C95.1662 10.4205 95.0057 10.1108 94.9318 9.76705L96.6108 9.54119C96.6619 9.67188 96.7429 9.79403 96.8537 9.90767C96.9645 10.0213 97.1108 10.1122 97.2926 10.1804C97.4773 10.2514 97.7017 10.2869 97.9659 10.2869C98.3608 10.2869 98.6861 10.1903 98.9418 9.99716C99.2003 9.80682 99.3295 9.48722 99.3295 9.03835V7.84091H99.2528C99.1733 8.02273 99.054 8.1946 98.8949 8.35653C98.7358 8.51847 98.5312 8.65057 98.2812 8.75284C98.0312 8.85511 97.733 8.90625 97.3864 8.90625C96.8949 8.90625 96.4474 8.79261 96.044 8.56534C95.6435 8.33523 95.3239 7.98437 95.0852 7.51278C94.8494 7.03835 94.7315 6.43892 94.7315 5.71449C94.7315 4.97301 94.8523 4.35369 95.0938 3.85653C95.3352 3.35937 95.6563 2.98722 96.0568 2.74006C96.4602 2.4929 96.902 2.36932 97.3821 2.36932C97.7486 2.36932 98.0554 2.43182 98.3026 2.55682C98.5497 2.67898 98.7486 2.83239 98.8991 3.01705C99.0526 3.19886 99.1705 3.37784 99.2528 3.55398H99.321V2.45455H101.124V9.06392C101.124 9.62074 100.987 10.0866 100.714 10.4616C100.442 10.8366 100.064 11.1179 99.581 11.3054C99.1009 11.4957 98.5483 11.5909 97.9233 11.5909ZM97.9616 7.54261C98.2543 7.54261 98.5014 7.47017 98.7031 7.32528C98.9077 7.17756 99.0639 6.96733 99.1719 6.6946C99.2827 6.41903 99.3381 6.08949 99.3381 5.70597C99.3381 5.32244 99.2841 4.99006 99.1761 4.70881C99.0682 4.42472 98.9119 4.20455 98.7074 4.0483C98.5028 3.89205 98.2543 3.81392 97.9616 3.81392C97.6634 3.81392 97.4119 3.89489 97.2074 4.05682C97.0028 4.21591 96.848 4.4375 96.7429 4.72159C96.6378 5.00568 96.5852 5.33381 96.5852 5.70597C96.5852 6.08381 96.6378 6.41051 96.7429 6.68608C96.8509 6.95881 97.0057 7.17045 97.2074 7.32102C97.4119 7.46875 97.6634 7.54261 97.9616 7.54261ZM105.551 9.12784C104.878 9.12784 104.298 8.99148 103.812 8.71875C103.33 8.44318 102.957 8.05398 102.696 7.55114C102.435 7.04545 102.304 6.44744 102.304 5.7571C102.304 5.08381 102.435 4.4929 102.696 3.98438C102.957 3.47585 103.325 3.07955 103.8 2.79545C104.277 2.51136 104.837 2.36932 105.479 2.36932C105.911 2.36932 106.313 2.43892 106.685 2.57812C107.06 2.71449 107.386 2.92045 107.665 3.19602C107.946 3.47159 108.165 3.81818 108.321 4.2358C108.477 4.65057 108.555 5.13636 108.555 5.69318V6.19176H103.028V5.06676H106.847C106.847 4.8054 106.79 4.57386 106.676 4.37216C106.563 4.17045 106.405 4.01278 106.203 3.89915C106.004 3.78267 105.773 3.72443 105.509 3.72443C105.233 3.72443 104.989 3.78835 104.776 3.91619C104.565 4.04119 104.401 4.21023 104.281 4.4233C104.162 4.63352 104.101 4.8679 104.098 5.12642V6.19602C104.098 6.51989 104.158 6.79972 104.277 7.03551C104.399 7.27131 104.571 7.45312 104.793 7.58097C105.014 7.70881 105.277 7.77273 105.581 7.77273C105.783 7.77273 105.967 7.74432 106.135 7.6875C106.303 7.63068 106.446 7.54545 106.565 7.43182C106.685 7.31818 106.776 7.17898 106.838 7.0142L108.517 7.125C108.432 7.52841 108.257 7.88068 107.993 8.18182C107.732 8.48011 107.393 8.71307 106.979 8.88068C106.567 9.04545 106.091 9.12784 105.551 9.12784Z" fill="#B905D7" fill-opacity="0.7"/>
</svg>
